<?xml version="1.0" encoding="UTF-8" standalone="no"?>
<!-- Created with Inkscape (http://www.inkscape.org/) -->

<svg
   xmlns:dc="http://purl.org/dc/elements/1.1/"
   xmlns:cc="http://creativecommons.org/ns#"
   xmlns:rdf="http://www.w3.org/1999/02/22-rdf-syntax-ns#"
   xmlns:svg="http://www.w3.org/2000/svg"
   xmlns="http://www.w3.org/2000/svg"
   xmlns:sodipodi="http://sodipodi.sourceforge.net/DTD/sodipodi-0.dtd"
   xmlns:inkscape="http://www.inkscape.org/namespaces/inkscape"
   width="512"
   height="512"
   viewBox="0 0 135.46666 135.46667"
   version="1.1"
   id="svg8"
   inkscape:version="0.92.3 (2405546, 2018-03-11)"
   sodipodi:docname="icon3.svg"
   inkscape:export-filename="/home/jonas/code/script_panel/icon.png"
   inkscape:export-xdpi="96.000008"
   inkscape:export-ydpi="96.000008">
  <defs
     id="defs2" />
  <sodipodi:namedview
     id="base"
     pagecolor="#ffffff"
     bordercolor="#666666"
     borderopacity="1.0"
     inkscape:pageopacity="0.0"
     inkscape:pageshadow="2"
     inkscape:zoom="1.4"
     inkscape:cx="197.77507"
     inkscape:cy="236.13053"
     inkscape:document-units="mm"
     inkscape:current-layer="layer1"
     showgrid="false"
     units="px"
     showguides="true"
     inkscape:guide-bbox="true"
     inkscape:window-width="1873"
     inkscape:window-height="1025"
     inkscape:window-x="47"
     inkscape:window-y="27"
     inkscape:window-maximized="1" />
  <metadata
     id="metadata5">
    <rdf:RDF>
      <cc:Work
         rdf:about="">
        <dc:format>image/svg+xml</dc:format>
        <dc:type
           rdf:resource="http://purl.org/dc/dcmitype/StillImage" />
        <dc:title />
      </cc:Work>
    </rdf:RDF>
  </metadata>
  <g
     inkscape:label="Ebene 1"
     inkscape:groupmode="layer"
     id="layer1"
     transform="translate(0,-161.53332)">
    <rect
       id="rect10"
       width="120.19643"
       height="107.72324"
       x="7.635119"
       y="174.53568"
       style="stroke-width:0.26458332"
       ry="11.717262"
       inkscape:export-filename="/home/jonas/rect823-3-5-3-5.png"
       inkscape:export-xdpi="96"
       inkscape:export-ydpi="96" />
    <path
       style="stroke-width:0.1889881"
       d="m 16.780338,281.90601 c -4.255143,-1.01384 -7.5862882,-4.32612 -8.6897248,-8.64052 -0.3556484,-1.39057 -0.3650131,-2.55056 -0.3618166,-44.8173 0.00282,-37.25234 0.042196,-43.57346 0.2783919,-44.6883 0.8570828,-4.04542 4.0983005,-7.45454 8.3172875,-8.74815 1.088881,-0.33387 3.131004,-0.34768 51.404761,-0.34768 48.273783,0 50.315903,0.0138 51.404783,0.34768 4.2414,1.30048 7.47262,4.71503 8.32347,8.79572 0.24381,1.16929 0.27376,7.0465 0.2306,45.23715 l -0.0496,43.89326 -0.41669,1.09146 c -0.64502,1.68955 -1.50133,3.18589 -2.432,4.2498 -1.04909,1.19926 -3.23474,2.68317 -4.83216,3.2807 l -1.20159,0.44947 -50.648837,0.0291 c -27.856844,0.016 -50.953938,-0.0436 -51.326875,-0.13242 z"
       id="path12"
       inkscape:connector-curvature="0"
       inkscape:export-filename="/home/jonas/rect823-3-5-3-5.png"
       inkscape:export-xdpi="96"
       inkscape:export-ydpi="96" />
    <path
       style="stroke-width:0.1889881"
       d="m 16.41897,281.80075 c -4.165849,-1.12194 -7.2374485,-4.26985 -8.3283568,-8.53526 -0.3556484,-1.39057 -0.3650131,-2.55056 -0.3618166,-44.8173 0.00282,-37.25234 0.042196,-43.57346 0.2783919,-44.6883 0.8570828,-4.04542 4.0983005,-7.45454 8.3172875,-8.74815 1.088881,-0.33387 3.131004,-0.34768 51.404761,-0.34768 48.273783,0 50.315903,0.0138 51.404783,0.34768 4.21899,1.29361 7.46021,4.70273 8.31729,8.74815 0.40964,1.93349 0.41441,87.38672 0.005,89.31875 -0.33431,1.57755 -1.51616,3.88653 -2.65589,5.18882 -1.05894,1.20997 -3.24023,2.69293 -4.84276,3.29237 l -1.2016,0.44947 -50.648837,0.0357 c -44.219404,0.0312 -50.780755,1.6e-4 -51.688243,-0.24424 z"
       id="path14"
       inkscape:connector-curvature="0"
       inkscape:export-filename="/home/jonas/rect823-3-5-3-5.png"
       inkscape:export-xdpi="96"
       inkscape:export-ydpi="96" />
    <path
       style="fill:#3b3b3b;fill-opacity:1;stroke:#e0e0e0;stroke-width:7.5;stroke-linejoin:round;stroke-miterlimit:4;stroke-dasharray:none;stroke-opacity:1"
       d="M 16.41897,281.80074 C 12.525322,280.75212 9.8315083,278.183 8.2202593,273.98155 L 7.820009,272.93787 7.770403,229.04461 c -0.043162,-38.19065 -0.013202,-44.06786 0.2306029,-45.23715 0.8508476,-4.08069 4.0820691,-7.49524 8.3234701,-8.79572 1.088904,-0.33387 3.133749,-0.34768 51.499254,-0.34768 h 50.36535 l 1.61475,0.57829 c 0.88811,0.31806 2.10011,0.90045 2.69333,1.29421 2.3881,1.58514 4.38642,4.48974 4.95273,7.19893 0.40649,1.94464 0.41752,87.4033 0.0115,89.31866 -0.76153,3.5927 -3.45253,6.75375 -7.09897,8.33896 l -1.41741,0.61619 -50.743324,0.0357 c -44.302731,0.0312 -50.875233,1.6e-4 -51.782738,-0.24425 z"
       id="path16"
       inkscape:connector-curvature="0"
       inkscape:export-filename="/home/jonas/rect823-3-5-3-5.png"
       inkscape:export-xdpi="96"
       inkscape:export-ydpi="96" />
    <rect
       style="fill:#747474;fill-opacity:1;stroke:#ececec;stroke-width:2.67616177;stroke-linejoin:round;stroke-miterlimit:4;stroke-dasharray:none;stroke-opacity:1"
       id="rect823-3"
       width="42.20145"
       height="29.087584"
       x="73.555389"
       y="193.88937"
       ry="3.1760488"
       inkscape:export-filename="/home/jonas/rect823-3-5-3-5.png"
       inkscape:export-xdpi="96"
       inkscape:export-ydpi="96" />
    <rect
       style="fill:#747474;fill-opacity:1;stroke:#ececec;stroke-width:2.67616177;stroke-linejoin:round;stroke-miterlimit:4;stroke-dasharray:none;stroke-opacity:1"
       id="rect823-3-5"
       width="42.20145"
       height="29.087584"
       x="20.260233"
       y="193.88937"
       ry="3.1760488"
       inkscape:export-filename="/home/jonas/rect823-3-5-3-5.png"
       inkscape:export-xdpi="96"
       inkscape:export-ydpi="96" />
    <rect
       style="fill:#747474;fill-opacity:1;stroke:#ececec;stroke-width:2.67616177;stroke-linejoin:round;stroke-miterlimit:4;stroke-dasharray:none;stroke-opacity:1"
       id="rect823-3-5-3"
       width="42.20145"
       height="29.087584"
       x="20.260233"
       y="232.99715"
       ry="3.1760488"
       inkscape:export-filename="/home/jonas/rect823-3-5-3-5.png"
       inkscape:export-xdpi="96"
       inkscape:export-ydpi="96" />
    <rect
       style="fill:#747474;fill-opacity:1;stroke:#ececec;stroke-width:2.67616177;stroke-linejoin:round;stroke-miterlimit:4;stroke-dasharray:none;stroke-opacity:1"
       id="rect823-3-5-3-5"
       width="42.20145"
       height="29.087584"
       x="73.555389"
       y="232.99715"
       ry="3.1760488"
       inkscape:export-filename="/home/jonas/rect823-3-5-3-5.png"
       inkscape:export-xdpi="96"
       inkscape:export-ydpi="96" />
  </g>
</svg>
